<svg xmlns="http://www.w3.org/2000/svg" viewBox="0 0 75 75"><defs><style>.cls-1{fill:#fff;}.cls-2{fill:#1d428a;}</style></defs><title>IIS MARCONI PIERALISI - JESI</title><g id="Livello_2" data-name="Livello 2"><g id="Livello_1-2" data-name="Livello 1"><path class="cls-1" d="M75,37.5A37.5,37.5,0,1,1,37.5,0,37.5,37.5,0,0,1,75,37.5"/><path class="cls-2" d="M51.94,38V31.37a2.44,2.44,0,0,1,2.43-2.45h2.88c3,0,4.76,1.42,4.76,3.89v1.31C62,36.59,60.27,38,57.25,38Zm14.38-3.28V32.34c0-4.52-3.38-7.21-9-7.21H52.92a5.32,5.32,0,0,0-5.29,5.35V47.71a3.18,3.18,0,1,1-6.36,0V31.55c0-4.26-1.8-6.42-5.36-6.42h-1c-3.13,0-4.85,1.9-5.58,6.14l-1.61,9.62c-.43,2.46-.91,3.21-2,3.21s-1.7-.84-2.06-3.21l-1.4-9.62c-.64-4.19-2.42-6.14-5.6-6.14h-.77c-3.19,0-5,1.95-5.61,6.14L8.7,41.83h4.1l1.42-8.94c.34-2.18.79-3.54,2-3.59s1.69,1.41,2,3.59l1.58,9.35c.73,4.31,2.13,5.84,5.37,5.84h.95c3.2,0,4.61-1.53,5.37-5.84l1.67-9.35c.44-2.65,1-3.6,2.11-3.6S37,30.23,37,32.34V47.82a7.48,7.48,0,1,0,15-.11V41.9h6.13c5.17,0,8.25-2.68,8.25-7.17"/></g></g></svg>